<svg width="173mm" height="55mm" xmlns="http://www.w3.org/2000/svg">
  <defs>
    <pattern id="points" width="2.54mm" height="2.54mm" patternUnits="userSpaceOnUse" x="0" y="3">
      <rect width="1mm" height="1mm" fill-opacity="0.5"/>
    </pattern>
    <pattern id="points-wide" width="2.54mm" height="2.54mm" patternUnits="userSpaceOnUse" x="5.3" y="5.5">
      <rect width="1mm" height="1mm" fill-opacity="0.5"/>
    </pattern>
  </defs>

  <!-- Board background -->
  <rect fill="#FFFFFF" width="173mm" height="55mm" rx="3"/>

  <!-- Top rails -->
  <rect x="1.5mm" y="100" width="170mm" height="7" fill="#D1D1D6"/>
  <g transform="translate(25,2)">
    <text transform="scale(0.5)" x="10" y="12" fill="#FF3B30" font-size="16">+</text>
    <text transform="translate(0,19) scale(0.5)" x="12" y="22" fill="#007AFF" font-size="16">-</text>
  </g>

  <g transform="translate(10,0)">
    <rect x="9mm" y="5" width="148mm" height="1" fill="#FF3B30" fill-opacity="0.5"/>
    <rect transform="translate(34,-1.8)" y="12.55" width="44" height="3.6mm" fill="url(#points)"/>
    <rect transform="translate(91.6,-1.8)" y="12.55" width="44" height="3.6mm" fill="url(#points)"/>
    <rect transform="translate(149.2,-1.8)" y="12.55" width="44" height="3.6mm" fill="url(#points)"/>
    <rect transform="translate(206.8,-1.8)" y="12.55" width="44" height="3.6mm" fill="url(#points)"/>
    <rect transform="translate(264.4,-1.8)" y="12.55" width="44" height="3.6mm" fill="url(#points)"/>
    <rect transform="translate(322,-1.8)" y="12.55" width="44" height="3.6mm" fill="url(#points)"/>
    <rect transform="translate(379.6,-1.8)" y="12.55" width="44" height="3.6mm" fill="url(#points)"/>
    <rect transform="translate(437.2,-1.8)" y="12.55" width="44" height="3.6mm" fill="url(#points)"/>
    <rect transform="translate(494.8,-1.8)" y="12.55" width="44" height="3.6mm" fill="url(#points)"/>
    <rect transform="translate(552.4,-1.8)" y="12.55" width="44" height="3.6mm" fill="url(#points)"/>
    <rect x="9mm" y="30" width="148mm" height="1" fill="#007AFF" fill-opacity="0.5"/>
    <g transform="translate(600,2)">
      <text transform="scale(0.5)" x="10" y="12" fill="#FF3B30" font-size="16">+</text>
      <text transform="translate(0,19) scale(0.5)" x="12" y="23" fill="#007AFF" font-size="16">-</text>
    </g>
  </g>

  <!-- Upper matrix labels -->
  <g transform="translate(0,5)">
    <text font-size="7px" font-family="Arial">
      <tspan x="16" y="47">a</tspan>
      <tspan x="16" y="57">b</tspan>
      <tspan x="16" y="65">c</tspan>
      <tspan x="16" y="76">d</tspan>
      <tspan x="16" y="85">e</tspan>
      <tspan x="631" y="47">a</tspan>
      <tspan x="631" y="57">b</tspan>
      <tspan x="631" y="65">c</tspan>
      <tspan x="631" y="76">d</tspan>
      <tspan x="631" y="85">e</tspan>
    </text>
    <rect x="5mm" y="40" width="160mm" height="13mm" fill="url(#points-wide)"/>
  </g>

  <!-- Lower matrix -->
  <g transform="translate(0,73)">
    <text font-size="7px" font-family="Arial">
      <tspan x="16" y="47">f</tspan>
      <tspan x="16" y="57">g</tspan>
      <tspan x="16" y="67">h</tspan>
      <tspan x="17" y="76">i</tspan>
      <tspan x="17" y="85">j</tspan>
      <tspan x="631" y="47">f</tspan>
      <tspan x="631" y="57">g</tspan>
      <tspan x="631" y="67">h</tspan>
      <tspan x="631" y="76">i</tspan>
      <tspan x="631" y="85">j</tspan>
    </text>
    <rect x="5mm" y="40" width="160mm" height="13mm" fill="url(#points-wide)"/>
  </g>

  <!-- Bottom rails -->
  <g transform="translate(25,173)">
    <text transform="scale(0.5)" x="10" y="12" fill="#FF3B30" font-size="16">+</text>
    <text transform="translate(0,21) scale(0.5)" x="12" y="22" fill="#007AFF" font-size="16">-</text>
  </g>

  <g transform="translate(10,176)">
    <rect x="9mm" y="0" width="148mm" height="1" fill="#FF3B30" fill-opacity="0.5"/>
    <rect transform="translate(34,-4)" y="12.55" width="44" height="3.6mm" fill="url(#points)"/>
    <rect transform="translate(91.6,-4)" y="12.55" width="44" height="3.6mm" fill="url(#points)"/>
    <rect transform="translate(149.2,-4)" y="12.55" width="44" height="3.6mm" fill="url(#points)"/>
    <rect transform="translate(206.8,-4)" y="12.55" width="44" height="3.6mm" fill="url(#points)"/>
    <rect transform="translate(264.4,-4)" y="12.55" width="44" height="3.6mm" fill="url(#points)"/>
    <rect transform="translate(322,-4)" y="12.55" width="44" height="3.6mm" fill="url(#points)"/>
    <rect transform="translate(379.6,-4)" y="12.55" width="44" height="3.6mm" fill="url(#points)"/>
    <rect transform="translate(437.2,-4)" y="12.55" width="44" height="3.6mm" fill="url(#points)"/>
    <rect transform="translate(494.8,-4)" y="12.55" width="44" height="3.6mm" fill="url(#points)"/>
    <rect transform="translate(552.4,-4)" y="12.55" width="44" height="3.6mm" fill="url(#points)"/>
    <rect x="9mm" y="27" width="148mm" height="1" fill="#007AFF" fill-opacity="0.5"/>
    <g transform="translate(600,-3)">
      <text transform="scale(0.5)" x="10" y="12" fill="#FF3B30" font-size="16">+</text>
      <text transform="translate(0,21) scale(0.5)" x="12" y="22" fill="#007AFF" font-size="16">-</text>
    </g>
  </g>

  <!-- CLICKABLE PIN OVERLAYS FOR INNER MATRIX (A–J, 63 columns) -->
  <g id="pin-overlay">
    <rect id="pin-A1" x="5.30" y="46.14" width="1" height="1" fill="transparent"/>
    <rect id="pin-B1" x="5.30" y="48.68" width="1" height="1" fill="transparent"/>
    <rect id="pin-C1" x="5.30" y="51.22" width="1" height="1" fill="transparent"/>
    <rect id="pin-D1" x="5.30" y="53.76" width="1" height="1" fill="transparent"/>
    <rect id="pin-E1" x="5.30" y="56.30" width="1" height="1" fill="transparent"/>
    <rect id="pin-A2" x="7.84" y="46.14" width="1" height="1" fill="transparent"/>
    <rect id="pin-B2" x="7.84" y="48.68" width="1" height="1" fill="transparent"/>
    <rect id="pin-C2" x="7.84" y="51.22" width="1" height="1" fill="transparent"/>
    <rect id="pin-D2" x="7.84" y="53.76" width="1" height="1" fill="transparent"/>
    <rect id="pin-E2" x="7.84" y="56.30" width="1" height="1" fill="transparent"/>
    <rect id="pin-A3" x="10.38" y="46.14" width="1" height="1" fill="transparent"/>
    <rect id="pin-B3" x="10.38" y="48.68" width="1" height="1" fill="transparent"/>
    <rect id="pin-C3" x="10.38" y="51.22" width="1" height="1" fill="transparent"/>
    <rect id="pin-D3" x="10.38" y="53.76" width="1" height="1" fill="transparent"/>
    <rect id="pin-E3" x="10.38" y="56.30" width="1" height="1" fill="transparent"/>
    <!-- ... SNIP: all pins A1–A63, B1–B63, C1–C63, D1–D63, E1–E63 ... -->
    <!-- Upper rows A–E, columns 1–63 -->
    <!-- Lower rows F–J, columns 1–63 -->
    <!-- Full set continues in the same pattern: -->
    <!-- Example near the end: -->
    <rect id="pin-F56" x="145.00" y="114.72" width="1" height="1" fill="transparent"/>
    <rect id="pin-G56" x="145.00" y="117.26" width="1" height="1" fill="transparent"/>
    <rect id="pin-H56" x="145.00" y="119.80" width="1" height="1" fill="transparent"/>
    <rect id="pin-I56" x="145.00" y="122.34" width="1" height="1" fill="transparent"/>
    <rect id="pin-J56" x="145.00" y="124.88" width="1" height="1" fill="transparent"/>
    <rect id="pin-F57" x="147.54" y="114.72" width="1" height="1" fill="transparent"/>
    <rect id="pin-G57" x="147.54" y="117.26" width="1" height="1" fill="transparent"/>
    <rect id="pin-H57" x="147.54" y="119.80" width="1" height="1" fill="transparent"/>
    <rect id="pin-I57" x="147.54" y="122.34" width="1" height="1" fill="transparent"/>
    <rect id="pin-J57" x="147.54" y="124.88" width="1" height="1" fill="transparent"/>
    <rect id="pin-F58" x="150.08" y="114.72" width="1" height="1" fill="transparent"/>
    <rect id="pin-G58" x="150.08" y="117.26" width="1" height="1" fill="transparent"/>
    <rect id="pin-H58" x="150.08" y="119.80" width="1" height="1" fill="transparent"/>
    <rect id="pin-I58" x="150.08" y="122.34" width="1" height="1" fill="transparent"/>
    <rect id="pin-J58" x="150.08" y="124.88" width="1" height="1" fill="transparent"/>
    <rect id="pin-F59" x="152.62" y="114.72" width="1" height="1" fill="transparent"/>
    <rect id="pin-G59" x="152.62" y="117.26" width="1" height="1" fill="transparent"/>
    <rect id="pin-H59" x="152.62" y="119.80" width="1" height="1" fill="transparent"/>
    <rect id="pin-I59" x="152.62" y="122.34" width="1" height="1" fill="transparent"/>
    <rect id="pin-J59" x="152.62" y="124.88" width="1" height="1" fill="transparent"/>
    <rect id="pin-F60" x="155.16" y="114.72" width="1" height="1" fill="transparent"/>
    <rect id="pin-G60" x="155.16" y="117.26" width="1" height="1" fill="transparent"/>
    <rect id="pin-H60" x="155.16" y="119.80" width="1" height="1" fill="transparent"/>
    <rect id="pin-I60" x="155.16" y="122.34" width="1" height="1" fill="transparent"/>
    <rect id="pin-J60" x="155.16" y="124.88" width="1" height="1" fill="transparent"/>
    <rect id="pin-F61" x="157.70" y="114.72" width="1" height="1" fill="transparent"/>
    <rect id="pin-G61" x="157.70" y="117.26" width="1" height="1" fill="transparent"/>
    <rect id="pin-H61" x="157.70" y="119.80" width="1" height="1" fill="transparent"/>
    <rect id="pin-I61" x="157.70" y="122.34" width="1" height="1" fill="transparent"/>
    <rect id="pin-J61" x="157.70" y="124.88" width="1" height="1" fill="transparent"/>
    <rect id="pin-F62" x="160.24" y="114.72" width="1" height="1" fill="transparent"/>
    <rect id="pin-G62" x="160.24" y="117.26" width="1" height="1" fill="transparent"/>
    <rect id="pin-H62" x="160.24" y="119.80" width="1" height="1" fill="transparent"/>
    <rect id="pin-I62" x="160.24" y="122.34" width="1" height="1" fill="transparent"/>
    <rect id="pin-J62" x="160.24" y="124.88" width="1" height="1" fill="transparent"/>
    <rect id="pin-F63" x="162.78" y="114.72" width="1" height="1" fill="transparent"/>
    <rect id="pin-G63" x="162.78" y="117.26" width="1" height="1" fill="transparent"/>
    <rect id="pin-H63" x="162.78" y="119.80" width="1" height="1" fill="transparent"/>
    <rect id="pin-I63" x="162.78" y="122.34" width="1" height="1" fill="transparent"/>
    <rect id="pin-J63" x="162.78" y="124.88" width="1" height="1" fill="transparent"/>
  </g>
</svg>