<svg width="800" height="425" viewBox="0 0 640 340" xmlns="http://www.w3.org/2000/svg">

  <!-- Board background -->
  <rect x="10" y="10" width="620" height="320" rx="12" ry="12" fill="#f8f8f8" stroke="#d0d0d0" stroke-width="2"/>

  <!-- Power rails -->
  <line x1="32" y1="36" x2="608" y2="36" stroke="#e44" stroke-width="2"/>
  <line x1="32" y1="84" x2="608" y2="84" stroke="#48c" stroke-width="2"/>

  <line x1="32" y1="296" x2="608" y2="296" stroke="#e44" stroke-width="2"/>
  <line x1="32" y1="332" x2="608" y2="332" stroke="#48c" stroke-width="2"/>

  <!-- Rail labels -->
  <text x="18" y="40" font-size="12" fill="#e44">+</text>
  <text x="18" y="62" font-size="12" fill="#48c">-</text>

  <text x="18" y="292" font-size="12" fill="#e44">+</text>
  <text x="18" y="314" font-size="12" fill="#48c">-</text>

  <!-- Column numbers -->
    <text x="44" y="105" font-size="10" text-anchor="middle" fill="#555">1</text>
  <text x="62" y="105" font-size="10" text-anchor="middle" fill="#555">2</text>
  <text x="80" y="105" font-size="10" text-anchor="middle" fill="#555">3</text>
  <text x="98" y="105" font-size="10" text-anchor="middle" fill="#555">4</text>
  <text x="116" y="105" font-size="10" text-anchor="middle" fill="#555">5</text>
  <text x="134" y="105" font-size="10" text-anchor="middle" fill="#555">6</text>
  <text x="152" y="105" font-size="10" text-anchor="middle" fill="#555">7</text>
  <text x="170" y="105" font-size="10" text-anchor="middle" fill="#555">8</text>
  <text x="188" y="105" font-size="10" text-anchor="middle" fill="#555">9</text>
  <text x="206" y="105" font-size="10" text-anchor="middle" fill="#555">10</text>
  <text x="224" y="105" font-size="10" text-anchor="middle" fill="#555">11</text>
  <text x="242" y="105" font-size="10" text-anchor="middle" fill="#555">12</text>
  <text x="260" y="105" font-size="10" text-anchor="middle" fill="#555">13</text>
  <text x="278" y="105" font-size="10" text-anchor="middle" fill="#555">14</text>
  <text x="296" y="105" font-size="10" text-anchor="middle" fill="#555">15</text>
  <text x="314" y="105" font-size="10" text-anchor="middle" fill="#555">16</text>
  <text x="332" y="105" font-size="10" text-anchor="middle" fill="#555">17</text>
  <text x="350" y="105" font-size="10" text-anchor="middle" fill="#555">18</text>
  <text x="368" y="105" font-size="10" text-anchor="middle" fill="#555">19</text>
  <text x="386" y="105" font-size="10" text-anchor="middle" fill="#555">20</text>
  <text x="404" y="105" font-size="10" text-anchor="middle" fill="#555">21</text>
  <text x="422" y="105" font-size="10" text-anchor="middle" fill="#555">22</text>
  <text x="440" y="105" font-size="10" text-anchor="middle" fill="#555">23</text>
  <text x="458" y="105" font-size="10" text-anchor="middle" fill="#555">24</text>
  <text x="476" y="105" font-size="10" text-anchor="middle" fill="#555">25</text>
  <text x="494" y="105" font-size="10" text-anchor="middle" fill="#555">26</text>
  <text x="512" y="105" font-size="10" text-anchor="middle" fill="#555">27</text>
  <text x="530" y="105" font-size="10" text-anchor="middle" fill="#555">28</text>
  <text x="548" y="105" font-size="10" text-anchor="middle" fill="#555">29</text>
  <text x="566" y="105" font-size="10" text-anchor="middle" fill="#555">30</text>

    <text x="44" y="275" font-size="10" text-anchor="middle" fill="#555">1</text>
  <text x="62" y="275" font-size="10" text-anchor="middle" fill="#555">2</text>
  <text x="80" y="275" font-size="10" text-anchor="middle" fill="#555">3</text>
  <text x="98" y="275" font-size="10" text-anchor="middle" fill="#555">4</text>
  <text x="116" y="275" font-size="10" text-anchor="middle" fill="#555">5</text>
  <text x="134" y="275" font-size="10" text-anchor="middle" fill="#555">6</text>
  <text x="152" y="275" font-size="10" text-anchor="middle" fill="#555">7</text>
  <text x="170" y="275" font-size="10" text-anchor="middle" fill="#555">8</text>
  <text x="188" y="275" font-size="10" text-anchor="middle" fill="#555">9</text>
  <text x="206" y="275" font-size="10" text-anchor="middle" fill="#555">10</text>
  <text x="224" y="275" font-size="10" text-anchor="middle" fill="#555">11</text>
  <text x="242" y="275" font-size="10" text-anchor="middle" fill="#555">12</text>
  <text x="260" y="275" font-size="10" text-anchor="middle" fill="#555">13</text>
  <text x="278" y="275" font-size="10" text-anchor="middle" fill="#555">14</text>
  <text x="296" y="275" font-size="10" text-anchor="middle" fill="#555">15</text>
  <text x="314" y="275" font-size="10" text-anchor="middle" fill="#555">16</text>
  <text x="332" y="275" font-size="10" text-anchor="middle" fill="#555">17</text>
  <text x="350" y="275" font-size="10" text-anchor="middle" fill="#555">18</text>
  <text x="368" y="275" font-size="10" text-anchor="middle" fill="#555">19</text>
  <text x="386" y="275" font-size="10" text-anchor="middle" fill="#555">20</text>
  <text x="404" y="275" font-size="10" text-anchor="middle" fill="#555">21</text>
  <text x="422" y="275" font-size="10" text-anchor="middle" fill="#555">22</text>
  <text x="440" y="275" font-size="10" text-anchor="middle" fill="#555">23</text>
  <text x="458" y="275" font-size="10" text-anchor="middle" fill="#555">24</text>
  <text x="476" y="275" font-size="10" text-anchor="middle" fill="#555">25</text>
  <text x="494" y="275" font-size="10" text-anchor="middle" fill="#555">26</text>
  <text x="512" y="275" font-size="10" text-anchor="middle" fill="#555">27</text>
  <text x="530" y="275" font-size="10" text-anchor="middle" fill="#555">28</text>
  <text x="548" y="275" font-size="10" text-anchor="middle" fill="#555">29</text>
  <text x="566" y="275" font-size="10" text-anchor="middle" fill="#555">30</text>


  <!-- Row letters -->
    <text x="22" y="118" font-size="12" fill="#555">a</text>
  <text x="22" y="136" font-size="12" fill="#555">b</text>
  <text x="22" y="154" font-size="12" fill="#555">c</text>
  <text x="22" y="172" font-size="12" fill="#555">d</text>
  <text x="22" y="188" font-size="12" fill="#555">e</text>

    <text x="22" y="206" font-size="12" fill="#555">f</text>
  <text x="22" y="224" font-size="12" fill="#555">g</text>
  <text x="22" y="242" font-size="12" fill="#555">h</text>
  <text x="22" y="260" font-size="12" fill="#555">i</text>


  <!-- TOP RAIL PINS -->
      <rect id="rail_top_pos_1" x="40" y="40" width="8" height="8" rx="2" ry="2" fill="#666"/>
    <rect id="rail_top_pos_2" x="58" y="40" width="8" height="8" rx="2" ry="2" fill="#666"/>
    <rect id="rail_top_pos_3" x="76" y="40" width="8" height="8" rx="2" ry="2" fill="#666"/>
    <rect id="rail_top_pos_4" x="94" y="40" width="8" height="8" rx="2" ry="2" fill="#666"/>
    <rect id="rail_top_pos_5" x="112" y="40" width="8" height="8" rx="2" ry="2" fill="#666"/>
    <rect id="rail_top_pos_6" x="130" y="40" width="8" height="8" rx="2" ry="2" fill="#666"/>
    <rect id="rail_top_pos_7" x="148" y="40" width="8" height="8" rx="2" ry="2" fill="#666"/>
    <rect id="rail_top_pos_8" x="166" y="40" width="8" height="8" rx="2" ry="2" fill="#666"/>
    <rect id="rail_top_pos_9" x="184" y="40" width="8" height="8" rx="2" ry="2" fill="#666"/>
    <rect id="rail_top_pos_10" x="202" y="40" width="8" height="8" rx="2" ry="2" fill="#666"/>
    <rect id="rail_top_pos_11" x="220" y="40" width="8" height="8" rx="2" ry="2" fill="#666"/>
    <rect id="rail_top_pos_12" x="238" y="40" width="8" height="8" rx="2" ry="2" fill="#666"/>
    <rect id="rail_top_pos_13" x="256" y="40" width="8" height="8" rx="2" ry="2" fill="#666"/>
    <rect id="rail_top_pos_14" x="274" y="40" width="8" height="8" rx="2" ry="2" fill="#666"/>
    <rect id="rail_top_pos_15" x="292" y="40" width="8" height="8" rx="2" ry="2" fill="#666"/>
    <rect id="rail_top_pos_16" x="310" y="40" width="8" height="8" rx="2" ry="2" fill="#666"/>
    <rect id="rail_top_pos_17" x="328" y="40" width="8" height="8" rx="2" ry="2" fill="#666"/>
    <rect id="rail_top_pos_18" x="346" y="40" width="8" height="8" rx="2" ry="2" fill="#666"/>
    <rect id="rail_top_pos_19" x="364" y="40" width="8" height="8" rx="2" ry="2" fill="#666"/>
    <rect id="rail_top_pos_20" x="382" y="40" width="8" height="8" rx="2" ry="2" fill="#666"/>
    <rect id="rail_top_pos_21" x="400" y="40" width="8" height="8" rx="2" ry="2" fill="#666"/>
    <rect id="rail_top_pos_22" x="418" y="40" width="8" height="8" rx="2" ry="2" fill="#666"/>
    <rect id="rail_top_pos_23" x="436" y="40" width="8" height="8" rx="2" ry="2" fill="#666"/>
    <rect id="rail_top_pos_24" x="454" y="40" width="8" height="8" rx="2" ry="2" fill="#666"/>
    <rect id="rail_top_pos_25" x="472" y="40" width="8" height="8" rx="2" ry="2" fill="#666"/>
    <rect id="rail_top_pos_26" x="490" y="40" width="8" height="8" rx="2" ry="2" fill="#666"/>
    <rect id="rail_top_pos_27" x="508" y="40" width="8" height="8" rx="2" ry="2" fill="#666"/>
    <rect id="rail_top_pos_28" x="526" y="40" width="8" height="8" rx="2" ry="2" fill="#666"/>
    <rect id="rail_top_pos_29" x="544" y="40" width="8" height="8" rx="2" ry="2" fill="#666"/>
    <rect id="rail_top_pos_30" x="562" y="40" width="8" height="8" rx="2" ry="2" fill="#666"/>

      <rect id="rail_top_neg_1" x="40" y="62" width="8" height="8" rx="2" ry="2" fill="#666"/>
    <rect id="rail_top_neg_2" x="58" y="62" width="8" height="8" rx="2" ry="2" fill="#666"/>
    <rect id="rail_top_neg_3" x="76" y="62" width="8" height="8" rx="2" ry="2" fill="#666"/>
    <rect id="rail_top_neg_4" x="94" y="62" width="8" height="8" rx="2" ry="2" fill="#666"/>
    <rect id="rail_top_neg_5" x="112" y="62" width="8" height="8" rx="2" ry="2" fill="#666"/>
    <rect id="rail_top_neg_6" x="130" y="62" width="8" height="8" rx="2" ry="2" fill="#666"/>
    <rect id="rail_top_neg_7" x="148" y="62" width="8" height="8" rx="2" ry="2" fill="#666"/>
    <rect id="rail_top_neg_8" x="166" y="62" width="8" height="8" rx="2" ry="2" fill="#666"/>
    <rect id="rail_top_neg_9" x="184" y="62" width="8" height="8" rx="2" ry="2" fill="#666"/>
    <rect id="rail_top_neg_10" x="202" y="62" width="8" height="8" rx="2" ry="2" fill="#666"/>
    <rect id="rail_top_neg_11" x="220" y="62" width="8" height="8" rx="2" ry="2" fill="#666"/>
    <rect id="rail_top_neg_12" x="238" y="62" width="8" height="8" rx="2" ry="2" fill="#666"/>
    <rect id="rail_top_neg_13" x="256" y="62" width="8" height="8" rx="2" ry="2" fill="#666"/>
    <rect id="rail_top_neg_14" x="274" y="62" width="8" height="8" rx="2" ry="2" fill="#666"/>
    <rect id="rail_top_neg_15" x="292" y="62" width="8" height="8" rx="2" ry="2" fill="#666"/>
    <rect id="rail_top_neg_16" x="310" y="62" width="8" height="8" rx="2" ry="2" fill="#666"/>
    <rect id="rail_top_neg_17" x="328" y="62" width="8" height="8" rx="2" ry="2" fill="#666"/>
    <rect id="rail_top_neg_18" x="346" y="62" width="8" height="8" rx="2" ry="2" fill="#666"/>
    <rect id="rail_top_neg_19" x="364" y="62" width="8" height="8" rx="2" ry="2" fill="#666"/>
    <rect id="rail_top_neg_20" x="382" y="62" width="8" height="8" rx="2" ry="2" fill="#666"/>
    <rect id="rail_top_neg_21" x="400" y="62" width="8" height="8" rx="2" ry="2" fill="#666"/>
    <rect id="rail_top_neg_22" x="418" y="62" width="8" height="8" rx="2" ry="2" fill="#666"/>
    <rect id="rail_top_neg_23" x="436" y="62" width="8" height="8" rx="2" ry="2" fill="#666"/>
    <rect id="rail_top_neg_24" x="454" y="62" width="8" height="8" rx="2" ry="2" fill="#666"/>
    <rect id="rail_top_neg_25" x="472" y="62" width="8" height="8" rx="2" ry="2" fill="#666"/>
    <rect id="rail_top_neg_26" x="490" y="62" width="8" height="8" rx="2" ry="2" fill="#666"/>
    <rect id="rail_top_neg_27" x="508" y="62" width="8" height="8" rx="2" ry="2" fill="#666"/>
    <rect id="rail_top_neg_28" x="526" y="62" width="8" height="8" rx="2" ry="2" fill="#666"/>
    <rect id="rail_top_neg_29" x="544" y="62" width="8" height="8" rx="2" ry="2" fill="#666"/>
    <rect id="rail_top_neg_30" x="562" y="62" width="8" height="8" rx="2" ry="2" fill="#666"/>


  <!-- INNER BLOCK (a–e) -->
      <rect id="a1" x="40" y="110" width="8" height="8" rx="2" ry="2" fill="#666"/>
    <rect id="a2" x="58" y="110" width="8" height="8" rx="2" ry="2" fill="#666"/>
    <rect id="a3" x="76" y="110" width="8" height="8" rx="2" ry="2" fill="#666"/>
    <rect id="a4" x="94" y="110" width="8" height="8" rx="2" ry="2" fill="#666"/>
    <rect id="a5" x="112" y="110" width="8" height="8" rx="2" ry="2" fill="#666"/>
    <rect id="a6" x="130" y="110" width="8" height="8" rx="2" ry="2" fill="#666"/>
    <rect id="a7" x="148" y="110" width="8" height="8" rx="2" ry="2" fill="#666"/>
    <rect id="a8" x="166" y="110" width="8" height="8" rx="2" ry="2" fill="#666"/>
    <rect id="a9" x="184" y="110" width="8" height="8" rx="2" ry="2" fill="#666"/>
    <rect id="a10" x="202" y="110" width="8" height="8" rx="2" ry="2" fill="#666"/>
    <rect id="a11" x="220" y="110" width="8" height="8" rx="2" ry="2" fill="#666"/>
    <rect id="a12" x="238" y="110" width="8" height="8" rx="2" ry="2" fill="#666"/>
    <rect id="a13" x="256" y="110" width="8" height="8" rx="2" ry="2" fill="#666"/>
    <rect id="a14" x="274" y="110" width="8" height="8" rx="2" ry="2" fill="#666"/>
    <rect id="a15" x="292" y="110" width="8" height="8" rx="2" ry="2" fill="#666"/>
    <rect id="a16" x="310" y="110" width="8" height="8" rx="2" ry="2" fill="#666"/>
    <rect id="a17" x="328" y="110" width="8" height="8" rx="2" ry="2" fill="#666"/>
    <rect id="a18" x="346" y="110" width="8" height="8" rx="2" ry="2" fill="#666"/>
    <rect id="a19" x="364" y="110" width="8" height="8" rx="2" ry="2" fill="#666"/>
    <rect id="a20" x="382" y="110" width="8" height="8" rx="2" ry="2" fill="#666"/>
    <rect id="a21" x="400" y="110" width="8" height="8" rx="2" ry="2" fill="#666"/>
    <rect id="a22" x="418" y="110" width="8" height="8" rx="2" ry="2" fill="#666"/>
    <rect id="a23" x="436" y="110" width="8" height="8" rx="2" ry="2" fill="#666"/>
    <rect id="a24" x="454" y="110" width="8" height="8" rx="2" ry="2" fill="#666"/>
    <rect id="a25" x="472" y="110" width="8" height="8" rx="2" ry="2" fill="#666"/>
    <rect id="a26" x="490" y="110" width="8" height="8" rx="2" ry="2" fill="#666"/>
    <rect id="a27" x="508" y="110" width="8" height="8" rx="2" ry="2" fill="#666"/>
    <rect id="a28" x="526" y="110" width="8" height="8" rx="2" ry="2" fill="#666"/>
    <rect id="a29" x="544" y="110" width="8" height="8" rx="2" ry="2" fill="#666"/>
    <rect id="a30" x="562" y="110" width="8" height="8" rx="2" ry="2" fill="#666"/>
    <rect id="b1" x="40" y="128" width="8" height="8" rx="2" ry="2" fill="#666"/>
    <rect id="b2" x="58" y="128" width="8" height="8" rx="2" ry="2" fill="#666"/>
    <rect id="b3" x="76" y="128" width="8" height="8" rx="2" ry="2" fill="#666"/>
    <rect id="b4" x="94" y="128" width="8" height="8" rx="2" ry="2" fill="#666"/>
    <rect id="b5" x="112" y="128" width="8" height="8" rx="2" ry="2" fill="#666"/>
    <rect id="b6" x="130" y="128" width="8" height="8" rx="2" ry="2" fill="#666"/>
    <rect id="b7" x="148" y="128" width="8" height="8" rx="2" ry="2" fill="#666"/>
    <rect id="b8" x="166" y="128" width="8" height="8" rx="2" ry="2" fill="#666"/>
    <rect id="b9" x="184" y="128" width="8" height="8" rx="2" ry="2" fill="#666"/>
    <rect id="b10" x="202" y="128" width="8" height="8" rx="2" ry="2" fill="#666"/>
    <rect id="b11" x="220" y="128" width="8" height="8" rx="2" ry="2" fill="#666"/>
    <rect id="b12" x="238" y="128" width="8" height="8" rx="2" ry="2" fill="#666"/>
    <rect id="b13" x="256" y="128" width="8" height="8" rx="2" ry="2" fill="#666"/>
    <rect id="b14" x="274" y="128" width="8" height="8" rx="2" ry="2" fill="#666"/>
    <rect id="b15" x="292" y="128" width="8" height="8" rx="2" ry="2" fill="#666"/>
    <rect id="b16" x="310" y="128" width="8" height="8" rx="2" ry="2" fill="#666"/>
    <rect id="b17" x="328" y="128" width="8" height="8" rx="2" ry="2" fill="#666"/>
    <rect id="b18" x="346" y="128" width="8" height="8" rx="2" ry="2" fill="#666"/>
    <rect id="b19" x="364" y="128" width="8" height="8" rx="2" ry="2" fill="#666"/>
    <rect id="b20" x="382" y="128" width="8" height="8" rx="2" ry="2" fill="#666"/>
    <rect id="b21" x="400" y="128" width="8" height="8" rx="2" ry="2" fill="#666"/>
    <rect id="b22" x="418" y="128" width="8" height="8" rx="2" ry="2" fill="#666"/>
    <rect id="b23" x="436" y="128" width="8" height="8" rx="2" ry="2" fill="#666"/>
    <rect id="b24" x="454" y="128" width="8" height="8" rx="2" ry="2" fill="#666"/>
    <rect id="b25" x="472" y="128" width="8" height="8" rx="2" ry="2" fill="#666"/>
    <rect id="b26" x="490" y="128" width="8" height="8" rx="2" ry="2" fill="#666"/>
    <rect id="b27" x="508" y="128" width="8" height="8" rx="2" ry="2" fill="#666"/>
    <rect id="b28" x="526" y="128" width="8" height="8" rx="2" ry="2" fill="#666"/>
    <rect id="b29" x="544" y="128" width="8" height="8" rx="2" ry="2" fill="#666"/>
    <rect id="b30" x="562" y="128" width="8" height="8" rx="2" ry="2" fill="#666"/>
    <rect id="c1" x="40" y="146" width="8" height="8" rx="2" ry="2" fill="#666"/>
    <rect id="c2" x="58" y="146" width="8" height="8" rx="2" ry="2" fill="#666"/>
    <rect id="c3" x="76" y="146" width="8" height="8" rx="2" ry="2" fill="#666"/>
    <rect id="c4" x="94" y="146" width="8" height="8" rx="2" ry="2" fill="#666"/>
    <rect id="c5" x="112" y="146" width="8" height="8" rx="2" ry="2" fill="#666"/>
    <rect id="c6" x="130" y="146" width="8" height="8" rx="2" ry="2" fill="#666"/>
    <rect id="c7" x="148" y="146" width="8" height="8" rx="2" ry="2" fill="#666"/>
    <rect id="c8" x="166" y="146" width="8" height="8" rx="2" ry="2" fill="#666"/>
    <rect id="c9" x="184" y="146" width="8" height="8" rx="2" ry="2" fill="#666"/>
    <rect id="c10" x="202" y="146" width="8" height="8" rx="2" ry="2" fill="#666"/>
    <rect id="c11" x="220" y="146" width="8" height="8" rx="2" ry="2" fill="#666"/>
    <rect id="c12" x="238" y="146" width="8" height="8" rx="2" ry="2" fill="#666"/>
    <rect id="c13" x="256" y="146" width="8" height="8" rx="2" ry="2" fill="#666"/>
    <rect id="c14" x="274" y="146" width="8" height="8" rx="2" ry="2" fill="#666"/>
    <rect id="c15" x="292" y="146" width="8" height="8" rx="2" ry="2" fill="#666"/>
    <rect id="c16" x="310" y="146" width="8" height="8" rx="2" ry="2" fill="#666"/>
    <rect id="c17" x="328" y="146" width="8" height="8" rx="2" ry="2" fill="#666"/>
    <rect id="c18" x="346" y="146" width="8" height="8" rx="2" ry="2" fill="#666"/>
    <rect id="c19" x="364" y="146" width="8" height="8" rx="2" ry="2" fill="#666"/>
    <rect id="c20" x="382" y="146" width="8" height="8" rx="2" ry="2" fill="#666"/>
    <rect id="c21" x="400" y="146" width="8" height="8" rx="2" ry="2" fill="#666"/>
    <rect id="c22" x="418" y="146" width="8" height="8" rx="2" ry="2" fill="#666"/>
    <rect id="c23" x="436" y="146" width="8" height="8" rx="2" ry="2" fill="#666"/>
    <rect id="c24" x="454" y="146" width="8" height="8" rx="2" ry="2" fill="#666"/>
    <rect id="c25" x="472" y="146" width="8" height="8" rx="2" ry="2" fill="#666"/>
    <rect id="c26" x="490" y="146" width="8" height="8" rx="2" ry="2" fill="#666"/>
    <rect id="c27" x="508" y="146" width="8" height="8" rx="2" ry="2" fill="#666"/>
    <rect id="c28" x="526" y="146" width="8" height="8" rx="2" ry="2" fill="#666"/>
    <rect id="c29" x="544" y="146" width="8" height="8" rx="2" ry="2" fill="#666"/>
    <rect id="c30" x="562" y="146" width="8" height="8" rx="2" ry="2" fill="#666"/>
    <rect id="d1" x="40" y="164" width="8" height="8" rx="2" ry="2" fill="#666"/>
    <rect id="d2" x="58" y="164" width="8" height="8" rx="2" ry="2" fill="#666"/>
    <rect id="d3" x="76" y="164" width="8" height="8" rx="2" ry="2" fill="#666"/>
    <rect id="d4" x="94" y="164" width="8" height="8" rx="2" ry="2" fill="#666"/>
    <rect id="d5" x="112" y="164" width="8" height="8" rx="2" ry="2" fill="#666"/>
    <rect id="d6" x="130" y="164" width="8" height="8" rx="2" ry="2" fill="#666"/>
    <rect id="d7" x="148" y="164" width="8" height="8" rx="2" ry="2" fill="#666"/>
    <rect id="d8" x="166" y="164" width="8" height="8" rx="2" ry="2" fill="#666"/>
    <rect id="d9" x="184" y="164" width="8" height="8" rx="2" ry="2" fill="#666"/>
    <rect id="d10" x="202" y="164" width="8" height="8" rx="2" ry="2" fill="#666"/>
    <rect id="d11" x="220" y="164" width="8" height="8" rx="2" ry="2" fill="#666"/>
    <rect id="d12" x="238" y="164" width="8" height="8" rx="2" ry="2" fill="#666"/>
    <rect id="d13" x="256" y="164" width="8" height="8" rx="2" ry="2" fill="#666"/>
    <rect id="d14" x="274" y="164" width="8" height="8" rx="2" ry="2" fill="#666"/>
    <rect id="d15" x="292" y="164" width="8" height="8" rx="2" ry="2" fill="#666"/>
    <rect id="d16" x="310" y="164" width="8" height="8" rx="2" ry="2" fill="#666"/>
    <rect id="d17" x="328" y="164" width="8" height="8" rx="2" ry="2" fill="#666"/>
    <rect id="d18" x="346" y="164" width="8" height="8" rx="2" ry="2" fill="#666"/>
    <rect id="d19" x="364" y="164" width="8" height="8" rx="2" ry="2" fill="#666"/>
    <rect id="d20" x="382" y="164" width="8" height="8" rx="2" ry="2" fill="#666"/>
    <rect id="d21" x="400" y="164" width="8" height="8" rx="2" ry="2" fill="#666"/>
    <rect id="d22" x="418" y="164" width="8" height="8" rx="2" ry="2" fill="#666"/>
    <rect id="d23" x="436" y="164" width="8" height="8" rx="2" ry="2" fill="#666"/>
    <rect id="d24" x="454" y="164" width="8" height="8" rx="2" ry="2" fill="#666"/>
    <rect id="d25" x="472" y="164" width="8" height="8" rx="2" ry="2" fill="#666"/>
    <rect id="d26" x="490" y="164" width="8" height="8" rx="2" ry="2" fill="#666"/>
    <rect id="d27" x="508" y="164" width="8" height="8" rx="2" ry="2" fill="#666"/>
    <rect id="d28" x="526" y="164" width="8" height="8" rx="2" ry="2" fill="#666"/>
    <rect id="d29" x="544" y="164" width="8" height="8" rx="2" ry="2" fill="#666"/>
    <rect id="d30" x="562" y="164" width="8" height="8" rx="2" ry="2" fill="#666"/>
    <rect id="e1" x="40" y="182" width="8" height="8" rx="2" ry="2" fill="#666"/>
    <rect id="e2" x="58" y="182" width="8" height="8" rx="2" ry="2" fill="#666"/>
    <rect id="e3" x="76" y="182" width="8" height="8" rx="2" ry="2" fill="#666"/>
    <rect id="e4" x="94" y="182" width="8" height="8" rx="2" ry="2" fill="#666"/>
    <rect id="e5" x="112" y="182" width="8" height="8" rx="2" ry="2" fill="#666"/>
    <rect id="e6" x="130" y="182" width="8" height="8" rx="2" ry="2" fill="#666"/>
    <rect id="e7" x="148" y="182" width="8" height="8" rx="2" ry="2" fill="#666"/>
    <rect id="e8" x="166" y="182" width="8" height="8" rx="2" ry="2" fill="#666"/>
    <rect id="e9" x="184" y="182" width="8" height="8" rx="2" ry="2" fill="#666"/>
    <rect id="e10" x="202" y="182" width="8" height="8" rx="2" ry="2" fill="#666"/>
    <rect id="e11" x="220" y="182" width="8" height="8" rx="2" ry="2" fill="#666"/>
    <rect id="e12" x="238" y="182" width="8" height="8" rx="2" ry="2" fill="#666"/>
    <rect id="e13" x="256" y="182" width="8" height="8" rx="2" ry="2" fill="#666"/>
    <rect id="e14" x="274" y="182" width="8" height="8" rx="2" ry="2" fill="#666"/>
    <rect id="e15" x="292" y="182" width="8" height="8" rx="2" ry="2" fill="#666"/>
    <rect id="e16" x="310" y="182" width="8" height="8" rx="2" ry="2" fill="#666"/>
    <rect id="e17" x="328" y="182" width="8" height="8" rx="2" ry="2" fill="#666"/>
    <rect id="e18" x="346" y="182" width="8" height="8" rx="2" ry="2" fill="#666"/>
    <rect id="e19" x="364" y="182" width="8" height="8" rx="2" ry="2" fill="#666"/>
    <rect id="e20" x="382" y="182" width="8" height="8" rx="2" ry="2" fill="#666"/>
    <rect id="e21" x="400" y="182" width="8" height="8" rx="2" ry="2" fill="#666"/>
    <rect id="e22" x="418" y="182" width="8" height="8" rx="2" ry="2" fill="#666"/>
    <rect id="e23" x="436" y="182" width="8" height="8" rx="2" ry="2" fill="#666"/>
    <rect id="e24" x="454" y="182" width="8" height="8" rx="2" ry="2" fill="#666"/>
    <rect id="e25" x="472" y="182" width="8" height="8" rx="2" ry="2" fill="#666"/>
    <rect id="e26" x="490" y="182" width="8" height="8" rx="2" ry="2" fill="#666"/>
    <rect id="e27" x="508" y="182" width="8" height="8" rx="2" ry="2" fill="#666"/>
    <rect id="e28" x="526" y="182" width="8" height="8" rx="2" ry="2" fill="#666"/>
    <rect id="e29" x="544" y="182" width="8" height="8" rx="2" ry="2" fill="#666"/>
    <rect id="e30" x="562" y="182" width="8" height="8" rx="2" ry="2" fill="#666"/>


  <!-- INNER BLOCK (f–j) -->
      <rect id="f1" x="40" y="180" width="8" height="8" rx="2" ry="2" fill="#666"/>
    <rect id="f2" x="58" y="180" width="8" height="8" rx="2" ry="2" fill="#666"/>
    <rect id="f3" x="76" y="180" width="8" height="8" rx="2" ry="2" fill="#666"/>
    <rect id="f4" x="94" y="180" width="8" height="8" rx="2" ry="2" fill="#666"/>
    <rect id="f5" x="112" y="180" width="8" height="8" rx="2" ry="2" fill="#666"/>
    <rect id="f6" x="130" y="180" width="8" height="8" rx="2" ry="2" fill="#666"/>
    <rect id="f7" x="148" y="180" width="8" height="8" rx="2" ry="2" fill="#666"/>
    <rect id="f8" x="166" y="180" width="8" height="8" rx="2" ry="2" fill="#666"/>
    <rect id="f9" x="184" y="180" width="8" height="8" rx="2" ry="2" fill="#666"/>
    <rect id="f10" x="202" y="180" width="8" height="8" rx="2" ry="2" fill="#666"/>
    <rect id="f11" x="220" y="180" width="8" height="8" rx="2" ry="2" fill="#666"/>
    <rect id="f12" x="238" y="180" width="8" height="8" rx="2" ry="2" fill="#666"/>
    <rect id="f13" x="256" y="180" width="8" height="8" rx="2" ry="2" fill="#666"/>
    <rect id="f14" x="274" y="180" width="8" height="8" rx="2" ry="2" fill="#666"/>
    <rect id="f15" x="292" y="180" width="8" height="8" rx="2" ry="2" fill="#666"/>
    <rect id="f16" x="310" y="180" width="8" height="8" rx="2" ry="2" fill="#666"/>
    <rect id="f17" x="328" y="180" width="8" height="8" rx="2" ry="2" fill="#666"/>
    <rect id="f18" x="346" y="180" width="8" height="8" rx="2" ry="2" fill="#666"/>
    <rect id="f19" x="364" y="180" width="8" height="8" rx="2" ry="2" fill="#666"/>
    <rect id="f20" x="382" y="180" width="8" height="8" rx="2" ry="2" fill="#666"/>
    <rect id="f21" x="400" y="180" width="8" height="8" rx="2" ry="2" fill="#666"/>
    <rect id="f22" x="418" y="180" width="8" height="8" rx="2" ry="2" fill="#666"/>
    <rect id="f23" x="436" y="180" width="8" height="8" rx="2" ry="2" fill="#666"/>
    <rect id="f24" x="454" y="180" width="8" height="8" rx="2" ry="2" fill="#666"/>
    <rect id="f25" x="472" y="180" width="8" height="8" rx="2" ry="2" fill="#666"/>
    <rect id="f26" x="490" y="180" width="8" height="8" rx="2" ry="2" fill="#666"/>
    <rect id="f27" x="508" y="180" width="8" height="8" rx="2" ry="2" fill="#666"/>
    <rect id="f28" x="526" y="180" width="8" height="8" rx="2" ry="2" fill="#666"/>
    <rect id="f29" x="544" y="180" width="8" height="8" rx="2" ry="2" fill="#666"/>
    <rect id="f30" x="562" y="180" width="8" height="8" rx="2" ry="2" fill="#666"/>
    <rect id="g1" x="40" y="198" width="8" height="8" rx="2" ry="2" fill="#666"/>
    <rect id="g2" x="58" y="198" width="8" height="8" rx="2" ry="2" fill="#666"/>
    <rect id="g3" x="76" y="198" width="8" height="8" rx="2" ry="2" fill="#666"/>
    <rect id="g4" x="94" y="198" width="8" height="8" rx="2" ry="2" fill="#666"/>
    <rect id="g5" x="112" y="198" width="8" height="8" rx="2" ry="2" fill="#666"/>
    <rect id="g6" x="130" y="198" width="8" height="8" rx="2" ry="2" fill="#666"/>
    <rect id="g7" x="148" y="198" width="8" height="8" rx="2" ry="2" fill="#666"/>
    <rect id="g8" x="166" y="198" width="8" height="8" rx="2" ry="2" fill="#666"/>
    <rect id="g9" x="184" y="198" width="8" height="8" rx="2" ry="2" fill="#666"/>
    <rect id="g10" x="202" y="198" width="8" height="8" rx="2" ry="2" fill="#666"/>
    <rect id="g11" x="220" y="198" width="8" height="8" rx="2" ry="2" fill="#666"/>
    <rect id="g12" x="238" y="198" width="8" height="8" rx="2" ry="2" fill="#666"/>
    <rect id="g13" x="256" y="198" width="8" height="8" rx="2" ry="2" fill="#666"/>
    <rect id="g14" x="274" y="198" width="8" height="8" rx="2" ry="2" fill="#666"/>
    <rect id="g15" x="292" y="198" width="8" height="8" rx="2" ry="2" fill="#666"/>
    <rect id="g16" x="310" y="198" width="8" height="8" rx="2" ry="2" fill="#666"/>
    <rect id="g17" x="328" y="198" width="8" height="8" rx="2" ry="2" fill="#666"/>
    <rect id="g18" x="346" y="198" width="8" height="8" rx="2" ry="2" fill="#666"/>
    <rect id="g19" x="364" y="198" width="8" height="8" rx="2" ry="2" fill="#666"/>
    <rect id="g20" x="382" y="198" width="8" height="8" rx="2" ry="2" fill="#666"/>
    <rect id="g21" x="400" y="198" width="8" height="8" rx="2" ry="2" fill="#666"/>
    <rect id="g22" x="418" y="198" width="8" height="8" rx="2" ry="2" fill="#666"/>
    <rect id="g23" x="436" y="198" width="8" height="8" rx="2" ry="2" fill="#666"/>
    <rect id="g24" x="454" y="198" width="8" height="8" rx="2" ry="2" fill="#666"/>
    <rect id="g25" x="472" y="198" width="8" height="8" rx="2" ry="2" fill="#666"/>
    <rect id="g26" x="490" y="198" width="8" height="8" rx="2" ry="2" fill="#666"/>
    <rect id="g27" x="508" y="198" width="8" height="8" rx="2" ry="2" fill="#666"/>
    <rect id="g28" x="526" y="198" width="8" height="8" rx="2" ry="2" fill="#666"/>
    <rect id="g29" x="544" y="198" width="8" height="8" rx="2" ry="2" fill="#666"/>
    <rect id="g30" x="562" y="198" width="8" height="8" rx="2" ry="2" fill="#666"/>
    <rect id="h1" x="40" y="216" width="8" height="8" rx="2" ry="2" fill="#666"/>
    <rect id="h2" x="58" y="216" width="8" height="8" rx="2" ry="2" fill="#666"/>
    <rect id="h3" x="76" y="216" width="8" height="8" rx="2" ry="2" fill="#666"/>
    <rect id="h4" x="94" y="216" width="8" height="8" rx="2" ry="2" fill="#666"/>
    <rect id="h5" x="112" y="216" width="8" height="8" rx="2" ry="2" fill="#666"/>
    <rect id="h6" x="130" y="216" width="8" height="8" rx="2" ry="2" fill="#666"/>
    <rect id="h7" x="148" y="216" width="8" height="8" rx="2" ry="2" fill="#666"/>
    <rect id="h8" x="166" y="216" width="8" height="8" rx="2" ry="2" fill="#666"/>
    <rect id="h9" x="184" y="216" width="8" height="8" rx="2" ry="2" fill="#666"/>
    <rect id="h10" x="202" y="216" width="8" height="8" rx="2" ry="2" fill="#666"/>
    <rect id="h11" x="220" y="216" width="8" height="8" rx="2" ry="2" fill="#666"/>
    <rect id="h12" x="238" y="216" width="8" height="8" rx="2" ry="2" fill="#666"/>
    <rect id="h13" x="256" y="216" width="8" height="8" rx="2" ry="2" fill="#666"/>
    <rect id="h14" x="274" y="216" width="8" height="8" rx="2" ry="2" fill="#666"/>
    <rect id="h15" x="292" y="216" width="8" height="8" rx="2" ry="2" fill="#666"/>
    <rect id="h16" x="310" y="216" width="8" height="8" rx="2" ry="2" fill="#666"/>
    <rect id="h17" x="328" y="216" width="8" height="8" rx="2" ry="2" fill="#666"/>
    <rect id="h18" x="346" y="216" width="8" height="8" rx="2" ry="2" fill="#666"/>
    <rect id="h19" x="364" y="216" width="8" height="8" rx="2" ry="2" fill="#666"/>
    <rect id="h20" x="382" y="216" width="8" height="8" rx="2" ry="2" fill="#666"/>
    <rect id="h21" x="400" y="216" width="8" height="8" rx="2" ry="2" fill="#666"/>
    <rect id="h22" x="418" y="216" width="8" height="8" rx="2" ry="2" fill="#666"/>
    <rect id="h23" x="436" y="216" width="8" height="8" rx="2" ry="2" fill="#666"/>
    <rect id="h24" x="454" y="216" width="8" height="8" rx="2" ry="2" fill="#666"/>
    <rect id="h25" x="472" y="216" width="8" height="8" rx="2" ry="2" fill="#666"/>
    <rect id="h26" x="490" y="216" width="8" height="8" rx="2" ry="2" fill="#666"/>
    <rect id="h27" x="508" y="216" width="8" height="8" rx="2" ry="2" fill="#666"/>
    <rect id="h28" x="526" y="216" width="8" height="8" rx="2" ry="2" fill="#666"/>
    <rect id="h29" x="544" y="216" width="8" height="8" rx="2" ry="2" fill="#666"/>
    <rect id="h30" x="562" y="216" width="8" height="8" rx="2" ry="2" fill="#666"/>
    <rect id="i1" x="40" y="234" width="8" height="8" rx="2" ry="2" fill="#666"/>
    <rect id="i2" x="58" y="234" width="8" height="8" rx="2" ry="2" fill="#666"/>
    <rect id="i3" x="76" y="234" width="8" height="8" rx="2" ry="2" fill="#666"/>
    <rect id="i4" x="94" y="234" width="8" height="8" rx="2" ry="2" fill="#666"/>
    <rect id="i5" x="112" y="234" width="8" height="8" rx="2" ry="2" fill="#666"/>
    <rect id="i6" x="130" y="234" width="8" height="8" rx="2" ry="2" fill="#666"/>
    <rect id="i7" x="148" y="234" width="8" height="8" rx="2" ry="2" fill="#666"/>
    <rect id="i8" x="166" y="234" width="8" height="8" rx="2" ry="2" fill="#666"/>
    <rect id="i9" x="184" y="234" width="8" height="8" rx="2" ry="2" fill="#666"/>
    <rect id="i10" x="202" y="234" width="8" height="8" rx="2" ry="2" fill="#666"/>
    <rect id="i11" x="220" y="234" width="8" height="8" rx="2" ry="2" fill="#666"/>
    <rect id="i12" x="238" y="234" width="8" height="8" rx="2" ry="2" fill="#666"/>
    <rect id="i13" x="256" y="234" width="8" height="8" rx="2" ry="2" fill="#666"/>
    <rect id="i14" x="274" y="234" width="8" height="8" rx="2" ry="2" fill="#666"/>
    <rect id="i15" x="292" y="234" width="8" height="8" rx="2" ry="2" fill="#666"/>
    <rect id="i16" x="310" y="234" width="8" height="8" rx="2" ry="2" fill="#666"/>
    <rect id="i17" x="328" y="234" width="8" height="8" rx="2" ry="2" fill="#666"/>
    <rect id="i18" x="346" y="234" width="8" height="8" rx="2" ry="2" fill="#666"/>
    <rect id="i19" x="364" y="234" width="8" height="8" rx="2" ry="2" fill="#666"/>
    <rect id="i20" x="382" y="234" width="8" height="8" rx="2" ry="2" fill="#666"/>
    <rect id="i21" x="400" y="234" width="8" height="8" rx="2" ry="2" fill="#666"/>
    <rect id="i22" x="418" y="234" width="8" height="8" rx="2" ry="2" fill="#666"/>
    <rect id="i23" x="436" y="234" width="8" height="8" rx="2" ry="2" fill="#666"/>
    <rect id="i24" x="454" y="234" width="8" height="8" rx="2" ry="2" fill="#666"/>
    <rect id="i25" x="472" y="234" width="8" height="8" rx="2" ry="2" fill="#666"/>
    <rect id="i26" x="490" y="234" width="8" height="8" rx="2" ry="2" fill="#666"/>
    <rect id="i27" x="508" y="234" width="8" height="8" rx="2" ry="2" fill="#666"/>
    <rect id="i28" x="526" y="234" width="8" height="8" rx="2" ry="2" fill="#666"/>
    <rect id="i29" x="544" y="234" width="8" height="8" rx="2" ry="2" fill="#666"/>
    <rect id="i30" x="562" y="234" width="8" height="8" rx="2" ry="2" fill="#666"/>
    <rect id="j1" x="40" y="252" width="8" height="8" rx="2" ry="2" fill="#666"/>
    <rect id="j2" x="58" y="252" width="8" height="8" rx="2" ry="2" fill="#666"/>
    <rect id="j3" x="76" y="252" width="8" height="8" rx="2" ry="2" fill="#666"/>
    <rect id="j4" x="94" y="252" width="8" height="8" rx="2" ry="2" fill="#666"/>
    <rect id="j5" x="112" y="252" width="8" height="8" rx="2" ry="2" fill="#666"/>
    <rect id="j6" x="130" y="252" width="8" height="8" rx="2" ry="2" fill="#666"/>
    <rect id="j7" x="148" y="252" width="8" height="8" rx="2" ry="2" fill="#666"/>
    <rect id="j8" x="166" y="252" width="8" height="8" rx="2" ry="2" fill="#666"/>
    <rect id="j9" x="184" y="252" width="8" height="8" rx="2" ry="2" fill="#666"/>
    <rect id="j10" x="202" y="252" width="8" height="8" rx="2" ry="2" fill="#666"/>
    <rect id="j11" x="220" y="252" width="8" height="8" rx="2" ry="2" fill="#666"/>
    <rect id="j12" x="238" y="252" width="8" height="8" rx="2" ry="2" fill="#666"/>
    <rect id="j13" x="256" y="252" width="8" height="8" rx="2" ry="2" fill="#666"/>
    <rect id="j14" x="274" y="252" width="8" height="8" rx="2" ry="2" fill="#666"/>
    <rect id="j15" x="292" y="252" width="8" height="8" rx="2" ry="2" fill="#666"/>
    <rect id="j16" x="310" y="252" width="8" height="8" rx="2" ry="2" fill="#666"/>
    <rect id="j17" x="328" y="252" width="8" height="8" rx="2" ry="2" fill="#666"/>
    <rect id="j18" x="346" y="252" width="8" height="8" rx="2" ry="2" fill="#666"/>
    <rect id="j19" x="364" y="252" width="8" height="8" rx="2" ry="2" fill="#666"/>
    <rect id="j20" x="382" y="252" width="8" height="8" rx="2" ry="2" fill="#666"/>
    <rect id="j21" x="400" y="252" width="8" height="8" rx="2" ry="2" fill="#666"/>
    <rect id="j22" x="418" y="252" width="8" height="8" rx="2" ry="2" fill="#666"/>
    <rect id="j23" x="436" y="252" width="8" height="8" rx="2" ry="2" fill="#666"/>
    <rect id="j24" x="454" y="252" width="8" height="8" rx="2" ry="2" fill="#666"/>
    <rect id="j25" x="472" y="252" width="8" height="8" rx="2" ry="2" fill="#666"/>
    <rect id="j26" x="490" y="252" width="8" height="8" rx="2" ry="2" fill="#666"/>
    <rect id="j27" x="508" y="252" width="8" height="8" rx="2" ry="2" fill="#666"/>
    <rect id="j28" x="526" y="252" width="8" height="8" rx="2" ry="2" fill="#666"/>
    <rect id="j29" x="544" y="252" width="8" height="8" rx="2" ry="2" fill="#666"/>
    <rect id="j30" x="562" y="252" width="8" height="8" rx="2" ry="2" fill="#666"/>


  <!-- BOTTOM RAIL PINS -->
      <rect id="rail_bottom_pos_1" x="40" y="296" width="8" height="8" rx="2" ry="2" fill="#666"/>
    <rect id="rail_bottom_pos_2" x="58" y="296" width="8" height="8" rx="2" ry="2" fill="#666"/>
    <rect id="rail_bottom_pos_3" x="76" y="296" width="8" height="8" rx="2" ry="2" fill="#666"/>
    <rect id="rail_bottom_pos_4" x="94" y="296" width="8" height="8" rx="2" ry="2" fill="#666"/>
    <rect id="rail_bottom_pos_5" x="112" y="296" width="8" height="8" rx="2" ry="2" fill="#666"/>
    <rect id="rail_bottom_pos_6" x="130" y="296" width="8" height="8" rx="2" ry="2" fill="#666"/>
    <rect id="rail_bottom_pos_7" x="148" y="296" width="8" height="8" rx="2" ry="2" fill="#666"/>
    <rect id="rail_bottom_pos_8" x="166" y="296" width="8" height="8" rx="2" ry="2" fill="#666"/>
    <rect id="rail_bottom_pos_9" x="184" y="296" width="8" height="8" rx="2" ry="2" fill="#666"/>
    <rect id="rail_bottom_pos_10" x="202" y="296" width="8" height="8" rx="2" ry="2" fill="#666"/>
    <rect id="rail_bottom_pos_11" x="220" y="296" width="8" height="8" rx="2" ry="2" fill="#666"/>
    <rect id="rail_bottom_pos_12" x="238" y="296" width="8" height="8" rx="2" ry="2" fill="#666"/>
    <rect id="rail_bottom_pos_13" x="256" y="296" width="8" height="8" rx="2" ry="2" fill="#666"/>
    <rect id="rail_bottom_pos_14" x="274" y="296" width="8" height="8" rx="2" ry="2" fill="#666"/>
    <rect id="rail_bottom_pos_15" x="292" y="296" width="8" height="8" rx="2" ry="2" fill="#666"/>
    <rect id="rail_bottom_pos_16" x="310" y="296" width="8" height="8" rx="2" ry="2" fill="#666"/>
    <rect id="rail_bottom_pos_17" x="328" y="296" width="8" height="8" rx="2" ry="2" fill="#666"/>
    <rect id="rail_bottom_pos_18" x="346" y="296" width="8" height="8" rx="2" ry="2" fill="#666"/>
    <rect id="rail_bottom_pos_19" x="364" y="296" width="8" height="8" rx="2" ry="2" fill="#666"/>
    <rect id="rail_bottom_pos_20" x="382" y="296" width="8" height="8" rx="2" ry="2" fill="#666"/>
    <rect id="rail_bottom_pos_21" x="400" y="296" width="8" height="8" rx="2" ry="2" fill="#666"/>
    <rect id="rail_bottom_pos_22" x="418" y="296" width="8" height="8" rx="2" ry="2" fill="#666"/>
    <rect id="rail_bottom_pos_23" x="436" y="296" width="8" height="8" rx="2" ry="2" fill="#666"/>
    <rect id="rail_bottom_pos_24" x="454" y="296" width="8" height="8" rx="2" ry="2" fill="#666"/>
    <rect id="rail_bottom_pos_25" x="472" y="296" width="8" height="8" rx="2" ry="2" fill="#666"/>
    <rect id="rail_bottom_pos_26" x="490" y="296" width="8" height="8" rx="2" ry="2" fill="#666"/>
    <rect id="rail_bottom_pos_27" x="508" y="296" width="8" height="8" rx="2" ry="2" fill="#666"/>
    <rect id="rail_bottom_pos_28" x="526" y="296" width="8" height="8" rx="2" ry="2" fill="#666"/>
    <rect id="rail_bottom_pos_29" x="544" y="296" width="8" height="8" rx="2" ry="2" fill="#666"/>
    <rect id="rail_bottom_pos_30" x="562" y="296" width="8" height="8" rx="2" ry="2" fill="#666"/>

      <rect id="rail_bottom_neg_1" x="40" y="318" width="8" height="8" rx="2" ry="2" fill="#666"/>
    <rect id="rail_bottom_neg_2" x="58" y="318" width="8" height="8" rx="2" ry="2" fill="#666"/>
    <rect id="rail_bottom_neg_3" x="76" y="318" width="8" height="8" rx="2" ry="2" fill="#666"/>
    <rect id="rail_bottom_neg_4" x="94" y="318" width="8" height="8" rx="2" ry="2" fill="#666"/>
    <rect id="rail_bottom_neg_5" x="112" y="318" width="8" height="8" rx="2" ry="2" fill="#666"/>
    <rect id="rail_bottom_neg_6" x="130" y="318" width="8" height="8" rx="2" ry="2" fill="#666"/>
    <rect id="rail_bottom_neg_7" x="148" y="318" width="8" height="8" rx="2" ry="2" fill="#666"/>
    <rect id="rail_bottom_neg_8" x="166" y="318" width="8" height="8" rx="2" ry="2" fill="#666"/>
    <rect id="rail_bottom_neg_9" x="184" y="318" width="8" height="8" rx="2" ry="2" fill="#666"/>
    <rect id="rail_bottom_neg_10" x="202" y="318" width="8" height="8" rx="2" ry="2" fill="#666"/>
    <rect id="rail_bottom_neg_11" x="220" y="318" width="8" height="8" rx="2" ry="2" fill="#666"/>
    <rect id="rail_bottom_neg_12" x="238" y="318" width="8" height="8" rx="2" ry="2" fill="#666"/>
    <rect id="rail_bottom_neg_13" x="256" y="318" width="8" height="8" rx="2" ry="2" fill="#666"/>
    <rect id="rail_bottom_neg_14" x="274" y="318" width="8" height="8" rx="2" ry="2" fill="#666"/>
    <rect id="rail_bottom_neg_15" x="292" y="318" width="8" height="8" rx="2" ry="2" fill="#666"/>
    <rect id="rail_bottom_neg_16" x="310" y="318" width="8" height="8" rx="2" ry="2" fill="#666"/>
    <rect id="rail_bottom_neg_17" x="328" y="318" width="8" height="8" rx="2" ry="2" fill="#666"/>
    <rect id="rail_bottom_neg_18" x="346" y="318" width="8" height="8" rx="2" ry="2" fill="#666"/>
    <rect id="rail_bottom_neg_19" x="364" y="318" width="8" height="8" rx="2" ry="2" fill="#666"/>
    <rect id="rail_bottom_neg_20" x="382" y="318" width="8" height="8" rx="2" ry="2" fill="#666"/>
    <rect id="rail_bottom_neg_21" x="400" y="318" width="8" height="8" rx="2" ry="2" fill="#666"/>
    <rect id="rail_bottom_neg_22" x="418" y="318" width="8" height="8" rx="2" ry="2" fill="#666"/>
    <rect id="rail_bottom_neg_23" x="436" y="318" width="8" height="8" rx="2" ry="2" fill="#666"/>
    <rect id="rail_bottom_neg_24" x="454" y="318" width="8" height="8" rx="2" ry="2" fill="#666"/>
    <rect id="rail_bottom_neg_25" x="472" y="318" width="8" height="8" rx="2" ry="2" fill="#666"/>
    <rect id="rail_bottom_neg_26" x="490" y="318" width="8" height="8" rx="2" ry="2" fill="#666"/>
    <rect id="rail_bottom_neg_27" x="508" y="318" width="8" height="8" rx="2" ry="2" fill="#666"/>
    <rect id="rail_bottom_neg_28" x="526" y="318" width="8" height="8" rx="2" ry="2" fill="#666"/>
    <rect id="rail_bottom_neg_29" x="544" y="318" width="8" height="8" rx="2" ry="2" fill="#666"/>
    <rect id="rail_bottom_neg_30" x="562" y="318" width="8" height="8" rx="2" ry="2" fill="#666"/>
</svg>