<svg width="173mm" height="55mm" xmlns="http://www.w3.org/2000/svg">
  <defs>
    <pattern id="points" width="2.54mm" height="2.54mm" patternUnits="userSpaceOnUse" x="0" y="3">
      <rect width="1mm" height="1mm" fill-opacity="0.5"/>
    </pattern>
    <pattern id="points-wide" width="2.54mm" height="2.54mm" patternUnits="userSpaceOnUse" x="5.3" y="5.5">
      <rect width="1mm" height="1mm" fill-opacity="0.5"/>
    </pattern>
  </defs>

  <!-- Board background -->
  <rect fill="#FFFFFF" width="173mm" height="55mm" rx="3"/>
  <!-- Board border -->
  <rect x="0" y="0" width="173mm" height="55mm" rx="3" fill="none" stroke="black" stroke-width="2"/>

  <!-- Top rails -->
  <rect x="1.5mm" y="100" width="170mm" height="7" fill="#D1D1D6"/>
  <g transform="translate(25,2)">
    <text transform="scale(0.5)" x="10" y="12" fill="#FF3B30" font-size="16">+</text>
    <text transform="translate(0,19) scale(0.5)" x="12" y="22" fill="#007AFF" font-size="16">-</text>
  </g>

  <g transform="translate(10,0)">
    <rect x="9mm" y="5" width="148mm" height="1" fill="#FF3B30" fill-opacity="0.5"/>
    <rect transform="translate(34,-1.8)" y="12.55" width="44" height="3.6mm" fill="url(#points)"/>
    <rect transform="translate(91.6,-1.8)" y="12.55" width="44" height="3.6mm" fill="url(#points)"/>
    <rect transform="translate(149.2,-1.8)" y="12.55" width="44" height="3.6mm" fill="url(#points)"/>
    <rect transform="translate(206.8,-1.8)" y="12.55" width="44" height="3.6mm" fill="url(#points)"/>
    <rect transform="translate(264.4,-1.8)" y="12.55" width="44" height="3.6mm" fill="url(#points)"/>
    <rect transform="translate(322,-1.8)" y="12.55" width="44" height="3.6mm" fill="url(#points)"/>
    <rect transform="translate(379.6,-1.8)" y="12.55" width="44" height="3.6mm" fill="url(#points)"/>
    <rect transform="translate(437.2,-1.8)" y="12.55" width="44" height="3.6mm" fill="url(#points)"/>
    <rect transform="translate(494.8,-1.8)" y="12.55" width="44" height="3.6mm" fill="url(#points)"/>
    <rect transform="translate(552.4,-1.8)" y="12.55" width="44" height="3.6mm" fill="url(#points)"/>
    <rect x="9mm" y="30" width="148mm" height="1" fill="#007AFF" fill-opacity="0.5"/>
    <g transform="translate(600,2)">
      <text transform="scale(0.5)" x="10" y="12" fill="#FF3B30" font-size="16">+</text>
      <text transform="translate(0,19) scale(0.5)" x="12" y="23" fill="#007AFF" font-size="16">-</text>
    </g>
  </g>

  <!-- Upper matrix labels -->
  <g transform="translate(0,5)">
    <!-- Upper matrix lettering -->
    <text font-size="7px" font-family="Arial">
      <tspan x="16" y="47">a</tspan>
      <tspan x="16" y="57">b</tspan>
      <tspan x="16" y="65">c</tspan>
      <tspan x="16" y="76">d</tspan>
      <tspan x="16" y="85">e</tspan>
      <tspan x="631" y="47">a</tspan>
      <tspan x="631" y="57">b</tspan>
      <tspan x="631" y="65">c</tspan>
      <tspan x="631" y="76">d</tspan>
      <tspan x="631" y="85">e</tspan>
    </text>
    <rect x="5mm" y="40" width="160mm" height="13mm" fill="url(#points-wide)"/>

    <!-- Upper matrix numbering -->
    <g font-size="6px" font-family="Arial" fill="#000" opacity="0.7">
      <text x="6.5mm"   y="37">1</text>
      <text x="16.7mm" y="37">5</text>
      <text x="28.86mm"  y="37">10</text>
      <text x="41.56mm"  y="37">15</text>
      <text x="54.26mm"  y="37">20</text>
      <text x="66.96mm"  y="37">25</text>
      <text x="79.66mm"  y="37">30</text>
      <text x="92.36mm"  y="37">35</text>
      <text x="105.06mm" y="37">40</text>
      <text x="117.76mm" y="37">45</text>
      <text x="130.46mm" y="37">50</text>
      <text x="143.16mm" y="37">55</text>
      <text x="155.84mm" y="37">60</text>
    </g>
  </g>

  <!-- Lower matrix -->
  <g transform="translate(0,73)">
    <!-- Lower matrix lettering -->
    <text font-size="7px" font-family="Arial">
      <tspan x="16" y="47">f</tspan>
      <tspan x="16" y="57">g</tspan>
      <tspan x="16" y="67">h</tspan>
      <tspan x="17" y="76">i</tspan>
      <tspan x="17" y="85">j</tspan>
      <tspan x="631" y="47">f</tspan>
      <tspan x="631" y="57">g</tspan>
      <tspan x="631" y="67">h</tspan>
      <tspan x="631" y="76">i</tspan>
      <tspan x="631" y="85">j</tspan>
    </text>
    <rect x="5mm" y="40" width="160mm" height="13mm" fill="url(#points-wide)"/>

    <!-- Lower matrix numbering -->
    <g font-size="6px" font-family="Arial" fill="#000" opacity="0.7">
      <text x="6.5mm"   y="97">1</text>
      <text x="16.7mm" y="97">5</text>
      <text x="28.86mm"  y="97">10</text>
      <text x="41.56mm"  y="97">15</text>
      <text x="54.26mm"  y="97">20</text>
      <text x="66.96mm"  y="97">25</text>
      <text x="79.66mm"  y="97">30</text>
      <text x="92.36mm"  y="97">35</text>
      <text x="105.06mm" y="97">40</text>
      <text x="117.76mm" y="97">45</text>
      <text x="130.46mm" y="97">50</text>
      <text x="143.16mm" y="97">55</text>
      <text x="155.84mm" y="97">60</text>
    </g>
  </g>

  <!-- Bottom rails -->
  <g transform="translate(25,173)">
    <text transform="scale(0.5)" x="10" y="12" fill="#FF3B30" font-size="16">+</text>
    <text transform="translate(0,21) scale(0.5)" x="12" y="22" fill="#007AFF" font-size="16">-</text>
  </g>

  <g transform="translate(10,176)">
    <rect x="9mm" y="0" width="148mm" height="1" fill="#FF3B30" fill-opacity="0.5"/>
    <rect transform="translate(34,-4)" y="12.55" width="44" height="3.6mm" fill="url(#points)"/>
    <rect transform="translate(91.6,-4)" y="12.55" width="44" height="3.6mm" fill="url(#points)"/>
    <rect transform="translate(149.2,-4)" y="12.55" width="44" height="3.6mm" fill="url(#points)"/>
    <rect transform="translate(206.8,-4)" y="12.55" width="44" height="3.6mm" fill="url(#points)"/>
    <rect transform="translate(264.4,-4)" y="12.55" width="44" height="3.6mm" fill="url(#points)"/>
    <rect transform="translate(322,-4)" y="12.55" width="44" height="3.6mm" fill="url(#points)"/>
    <rect transform="translate(379.6,-4)" y="12.55" width="44" height="3.6mm" fill="url(#points)"/>
    <rect transform="translate(437.2,-4)" y="12.55" width="44" height="3.6mm" fill="url(#points)"/>
    <rect transform="translate(494.8,-4)" y="12.55" width="44" height="3.6mm" fill="url(#points)"/>
    <rect transform="translate(552.4,-4)" y="12.55" width="44" height="3.6mm" fill="url(#points)"/>
    <rect x="9mm" y="27" width="148mm" height="1" fill="#007AFF" fill-opacity="0.5"/>
    <g transform="translate(600,-3)">
      <text transform="scale(0.5)" x="10" y="12" fill="#FF3B30" font-size="16">+</text>
      <text transform="translate(0,21) scale(0.5)" x="12" y="22" fill="#007AFF" font-size="16">-</text>
    </g>
  </g>
</svg>